CalSansText-Bold.ufo
<glyph name="exclam" format="2">
  <advance width="283.0"/>
  <unicode hex="0021"/>
  <outline>
    <contour>
      <point x="94.0" y="213.0" type="line"/>
      <point x="194.0" y="213.0" type="line"/>
      <point x="214.0" y="577.0" type="line"/>
      <point x="214.0" y="700.0" type="line"/>
      <point x="74.0" y="700.0" type="line"/>
      <point x="74.0" y="577.0" type="line"/>
    </contour>
    <component base="period"/>
  </outline>
</glyph>
<glyph name="numbersign" format="2">
  <advance width="743.0"/>
  <unicode hex="0023"/>
  <outline>
    <contour>
      <point x="341.0" y="0.0" type="line"/>
      <point x="459.0" y="0.0" type="line"/>
      <point x="518.0" y="235.0" type="line"/>
      <point x="522.0" y="258.0" type="line"/>
      <point x="581.0" y="492.0" type="line"/>
      <point x="589.0" y="515.0" type="line"/>
      <point x="643.0" y="730.0" type="line"/>
      <point x="523.0" y="730.0" type="line"/>
      <point x="470.0" y="515.0" type="line"/>
      <point x="469.0" y="492.0" type="line"/>
      <point x="410.0" y="257.0" type="line"/>
      <point x="400.0" y="236.0" type="line"/>
    </contour>
    <contour>
      <point x="91.0" y="0.0" type="line"/>
      <point x="209.0" y="0.0" type="line"/>
      <point x="269.0" y="237.0" type="line"/>
      <point x="269.0" y="258.0" type="line"/>
      <point x="328.0" y="492.0" type="line"/>
      <point x="339.0" y="514.0" type="line"/>
      <point x="393.0" y="730.0" type="line"/>
      <point x="273.0" y="730.0" type="line"/>
      <point x="219.0" y="515.0" type="line"/>
      <point x="215.0" y="492.0" type="line"/>
      <point x="157.0" y="259.0" type="line"/>
      <point x="149.0" y="235.0" type="line"/>
    </contour>
    <contour>
      <point x="58.0" y="191.0" type="line"/>
      <point x="670.0" y="191.0" type="line"/>
      <point x="670.0" y="298.0" type="line"/>
      <point x="58.0" y="298.0" type="line"/>
    </contour>
    <contour>
      <point x="73.0" y="448.0" type="line"/>
      <point x="685.0" y="448.0" type="line"/>
      <point x="685.0" y="555.0" type="line"/>
      <point x="73.0" y="555.0" type="line"/>
    </contour>
  </outline>
</glyph>
<glyph name="quotesingle" format="2">
  <advance width="241.0"/>
  <unicode hex="0027"/>
  <outline>
    <contour>
      <point x="84.0" y="423.0" type="line"/>
      <point x="156.0" y="423.0" type="line"/>
      <point x="182.0" y="643.0" type="line" smooth="yes"/>
      <point x="187.0" y="683.0"/>
      <point x="157.0" y="713.0"/>
      <point x="121.0" y="713.0" type="curve" smooth="yes"/>
      <point x="85.0" y="713.0"/>
      <point x="54.0" y="683.0"/>
      <point x="59.0" y="643.0" type="curve" smooth="yes"/>
    </contour>
  </outline>
</glyph>
<glyph name="parenright" format="2">
  <advance width="368.0"/>
  <unicode hex="0029"/>
  <outline>
    <contour>
      <point x="158.0" y="-214.0" type="line"/>
      <point x="345.0" y="65.0"/>
      <point x="344.0" y="545.0"/>
      <point x="158.0" y="803.0" type="curve"/>
      <point x="40.0" y="740.0" type="line"/>
      <point x="205.0" y="489.0"/>
      <point x="199.0" y="141.0"/>
      <point x="40.0" y="-151.0" type="curve"/>
    </contour>
  </outline>
</glyph>
<glyph name="comma" format="2">
  <advance width="300.0"/>
  <unicode hex="002C"/>
  <outline>
    <contour>
      <point x="95.0" y="-158.0" type="line"/>
      <point x="207.0" y="-128.0"/>
      <point x="253.0" y="-44.0"/>
      <point x="253.0" y="33.0" type="curve" smooth="yes"/>
      <point x="253.0" y="109.0"/>
      <point x="207.0" y="166.0"/>
      <point x="146.0" y="166.0" type="curve" smooth="yes"/>
      <point x="101.0" y="166.0"/>
      <point x="67.0" y="134.0"/>
      <point x="67.0" y="92.0" type="curve" smooth="yes"/>
      <point x="67.0" y="51.0"/>
      <point x="95.0" y="21.0"/>
      <point x="132.0" y="21.0" type="curve" smooth="yes"/>
      <point x="143.0" y="21.0"/>
      <point x="155.0" y="25.0"/>
      <point x="162.0" y="30.0" type="curve"/>
      <point x="164.0" y="30.0" type="line"/>
      <point x="165.0" y="27.0"/>
      <point x="165.0" y="24.0"/>
      <point x="165.0" y="16.0" type="curve" smooth="yes"/>
      <point x="165.0" y="-19.0"/>
      <point x="133.0" y="-65.0"/>
      <point x="70.0" y="-82.0" type="curve"/>
    </contour>
  </outline>
</glyph>
<glyph name="period" format="2">
  <advance width="283.0"/>
  <unicode hex="002E"/>
  <outline>
    <contour>
      <point x="142.0" y="-13.0" type="curve" smooth="yes"/>
      <point x="194.0" y="-13.0"/>
      <point x="231.0" y="27.0"/>
      <point x="231.0" y="75.0" type="curve" smooth="yes"/>
      <point x="231.0" y="122.0"/>
      <point x="194.0" y="162.0"/>
      <point x="142.0" y="162.0" type="curve" smooth="yes"/>
      <point x="90.0" y="162.0"/>
      <point x="52.0" y="122.0"/>
      <point x="52.0" y="75.0" type="curve" smooth="yes"/>
      <point x="52.0" y="27.0"/>
      <point x="90.0" y="-13.0"/>
    </contour>
  </outline>
</glyph>
<glyph name="A" format="2">
  <advance width="714.0"/>
  <unicode hex="0041"/>
  <anchor x="362.0" y="0.0" name="bottom"/>
  <anchor x="547.0" y="0.0" name="ogonek"/>
  <anchor x="357.0" y="700.0" name="top"/>
  <anchor x="357.0" y="619.0" name="top_ring"/>
  <outline>
    <contour>
      <point x="11.0" y="0.0" type="line"/>
      <point x="168.0" y="0.0" type="line"/>
      <point x="226.0" y="166.0" type="line"/>
      <point x="241.0" y="207.0" type="line"/>
      <point x="321.0" y="427.0" type="line" smooth="yes"/>
      <point x="338.0" y="473.0"/>
      <point x="347.0" y="509.0"/>
      <point x="352.0" y="529.0" type="curve"/>
      <point x="360.0" y="529.0" type="line"/>
      <point x="365.0" y="509.0"/>
      <point x="376.0" y="473.0"/>
      <point x="393.0" y="427.0" type="curve" smooth="yes"/>
      <point x="473.0" y="207.0" type="line"/>
      <point x="488.0" y="166.0" type="line"/>
      <point x="547.0" y="0.0" type="line"/>
      <point x="703.0" y="0.0" type="line"/>
      <point x="418.0" y="700.0" type="line"/>
      <point x="297.0" y="700.0" type="line"/>
    </contour>
    <contour>
      <point x="161.0" y="119.0" type="line"/>
      <point x="540.0" y="119.0" type="line"/>
      <point x="540.0" y="254.0" type="line"/>
      <point x="161.0" y="254.0" type="line"/>
    </contour>
  </outline>
</glyph>
<glyph name="Q" format="2">
  <advance width="794.0"/>
  <unicode hex="0051"/>
  <anchor x="390.0" y="0.0" name="bottom"/>
  <anchor x="383.0" y="338.0" name="center"/>
  <anchor x="490.0" y="0.0" name="ogonek"/>
  <anchor x="390.0" y="700.0" name="top"/>
  <anchor x="600.0" y="700.0" name="topright"/>
  <outline>
    <contour>
      <point x="578.0" y="-57.0" type="line"/>
      <point x="730.0" y="-57.0" type="line"/>
      <point x="592.0" y="150.0" type="line"/>
      <point x="587.0" y="172.0" type="line"/>
      <point x="529.0" y="258.0" type="line"/>
      <point x="377.0" y="258.0" type="line"/>
      <point x="488.0" y="91.0" type="line"/>
      <point x="491.0" y="71.0" type="line"/>
    </contour>
    <component base="O"/>
  </outline>
</glyph>
<glyph name="R" format="2">
  <advance width="631.0"/>
  <unicode hex="0052"/>
  <anchor x="333.0" y="0.0" name="bottom"/>
  <anchor x="442.0" y="0.0" name="ogonek"/>
  <anchor x="308.0" y="700.0" name="top"/>
  <outline>
    <contour>
      <point x="80.0" y="0.0" type="line"/>
      <point x="220.0" y="0.0" type="line"/>
      <point x="220.0" y="281.0" type="line"/>
      <point x="264.0" y="281.0" type="line"/>
      <point x="272.0" y="256.0"/>
      <point x="283.0" y="237.0"/>
      <point x="293.0" y="222.0" type="curve" smooth="yes"/>
      <point x="442.0" y="0.0" type="line"/>
      <point x="607.0" y="0.0" type="line"/>
      <point x="411.0" y="295.0" type="line"/>
      <point x="514.0" y="317.0"/>
      <point x="579.0" y="385.0"/>
      <point x="579.0" y="490.0" type="curve" smooth="yes"/>
      <point x="579.0" y="617.0"/>
      <point x="483.0" y="700.0"/>
      <point x="338.0" y="700.0" type="curve" smooth="yes"/>
      <point x="80.0" y="700.0" type="line"/>
    </contour>
    <contour>
      <point x="220.0" y="411.0" type="line"/>
      <point x="220.0" y="565.0" type="line"/>
      <point x="317.0" y="565.0" type="line" smooth="yes"/>
      <point x="399.0" y="565.0"/>
      <point x="437.0" y="545.0"/>
      <point x="437.0" y="489.0" type="curve" smooth="yes"/>
      <point x="437.0" y="432.0"/>
      <point x="399.0" y="411.0"/>
      <point x="317.0" y="411.0" type="curve" smooth="yes"/>
    </contour>
  </outline>
</glyph>
<glyph name="S" format="2">
  <advance width="616.0"/>
  <unicode hex="0053"/>
  <anchor x="308.0" y="0.0" name="bottom"/>
  <anchor x="408.0" y="0.0" name="ogonek"/>
  <anchor x="328.0" y="700.0" name="top"/>
  <outline>
    <contour>
      <point x="308.0" y="-13.0" type="curve" smooth="yes"/>
      <point x="467.0" y="-13.0"/>
      <point x="564.0" y="73.0"/>
      <point x="564.0" y="200.0" type="curve" smooth="yes"/>
      <point x="564.0" y="451.0"/>
      <point x="235.0" y="397.0"/>
      <point x="235.0" y="506.0" type="curve" smooth="yes"/>
      <point x="235.0" y="554.0"/>
      <point x="270.0" y="579.0"/>
      <point x="330.0" y="579.0" type="curve" smooth="yes"/>
      <point x="380.0" y="579.0"/>
      <point x="413.0" y="556.0"/>
      <point x="444.0" y="504.0" type="curve"/>
      <point x="560.0" y="584.0" type="line"/>
      <point x="504.0" y="663.0"/>
      <point x="442.0" y="712.0"/>
      <point x="333.0" y="712.0" type="curve" smooth="yes"/>
      <point x="185.0" y="712.0"/>
      <point x="84.0" y="629.0"/>
      <point x="84.0" y="503.0" type="curve" smooth="yes"/>
      <point x="84.0" y="254.0"/>
      <point x="413.0" y="331.0"/>
      <point x="413.0" y="198.0" type="curve" smooth="yes"/>
      <point x="413.0" y="152.0"/>
      <point x="372.0" y="121.0"/>
      <point x="311.0" y="121.0" type="curve" smooth="yes"/>
      <point x="253.0" y="121.0"/>
      <point x="204.0" y="147.0"/>
      <point x="166.0" y="214.0" type="curve"/>
      <point x="45.0" y="130.0" type="line"/>
      <point x="111.0" y="26.0"/>
      <point x="197.0" y="-13.0"/>
    </contour>
  </outline>
</glyph>
<glyph name="asciicircum" format="2">
  <advance width="600.0"/>
  <unicode hex="005E"/>
  <outline>
    <contour>
      <point x="92.0" y="474.0" type="line"/>
      <point x="232.0" y="474.0" type="line"/>
      <point x="300.0" y="639.0" type="line"/>
      <point x="305.0" y="639.0" type="line"/>
      <point x="372.0" y="474.0" type="line"/>
      <point x="508.0" y="474.0" type="line"/>
      <point x="384.0" y="713.0" type="line"/>
      <point x="221.0" y="713.0" type="line"/>
    </contour>
  </outline>
</glyph>
<glyph name="s" format="2">
  <advance width="497.0"/>
  <unicode hex="0073"/>
  <anchor x="254.0" y="0.0" name="bottom"/>
  <anchor x="337.0" y="0.0" name="ogonek"/>
  <anchor x="259.0" y="505.0" name="top"/>
  <outline>
    <contour>
      <point x="253.0" y="-13.0" type="curve" smooth="yes"/>
      <point x="370.0" y="-13.0"/>
      <point x="453.0" y="53.0"/>
      <point x="453.0" y="153.0" type="curve" smooth="yes"/>
      <point x="453.0" y="249.0"/>
      <point x="397.0" y="286.0"/>
      <point x="269.0" y="314.0" type="curve" smooth="yes"/>
      <point x="220.0" y="326.0"/>
      <point x="194.0" y="338.0"/>
      <point x="194.0" y="364.0" type="curve" smooth="yes"/>
      <point x="194.0" y="387.0"/>
      <point x="219.0" y="409.0"/>
      <point x="258.0" y="409.0" type="curve" smooth="yes"/>
      <point x="298.0" y="409.0"/>
      <point x="326.0" y="392.0"/>
      <point x="354.0" y="350.0" type="curve"/>
      <point x="451.0" y="426.0" type="line"/>
      <point x="405.0" y="483.0"/>
      <point x="361.0" y="518.0"/>
      <point x="258.0" y="518.0" type="curve" smooth="yes"/>
      <point x="131.0" y="518.0"/>
      <point x="62.0" y="441.0"/>
      <point x="62.0" y="359.0" type="curve" smooth="yes"/>
      <point x="62.0" y="263.0"/>
      <point x="121.0" y="218.0"/>
      <point x="231.0" y="197.0" type="curve" smooth="yes"/>
      <point x="297.0" y="184.0"/>
      <point x="320.0" y="170.0"/>
      <point x="320.0" y="143.0" type="curve" smooth="yes"/>
      <point x="320.0" y="115.0"/>
      <point x="293.0" y="98.0"/>
      <point x="249.0" y="98.0" type="curve" smooth="yes"/>
      <point x="197.0" y="98.0"/>
      <point x="159.0" y="122.0"/>
      <point x="119.0" y="163.0" type="curve"/>
      <point x="34.0" y="75.0" type="line"/>
      <point x="94.0" y="17.0"/>
      <point x="157.0" y="-13.0"/>
    </contour>
  </outline>
</glyph>
<glyph name="v" format="2">
  <advance width="588.0"/>
  <unicode hex="0076"/>
  <anchor x="296.0" y="0.0" name="bottom"/>
  <anchor x="296.0" y="505.0" name="top"/>
  <outline>
    <contour>
      <point x="222.0" y="0.0" type="line"/>
      <point x="367.0" y="0.0" type="line"/>
      <point x="573.0" y="505.0" type="line"/>
      <point x="416.0" y="505.0" type="line"/>
      <point x="322.0" y="217.0" type="line" smooth="yes"/>
      <point x="315.0" y="197.0"/>
      <point x="305.0" y="162.0"/>
      <point x="300.0" y="131.0" type="curve"/>
      <point x="292.0" y="131.0" type="line"/>
      <point x="287.0" y="162.0"/>
      <point x="276.0" y="197.0"/>
      <point x="269.0" y="217.0" type="curve" smooth="yes"/>
      <point x="175.0" y="505.0" type="line"/>
      <point x="15.0" y="505.0" type="line"/>
    </contour>
  </outline>
</glyph>
<glyph name="x" format="2">
  <advance width="575.0"/>
  <unicode hex="0078"/>
  <anchor x="288.0" y="0.0" name="bottom"/>
  <anchor x="288.0" y="505.0" name="top"/>
  <outline>
    <contour>
      <point x="20.0" y="0.0" type="line"/>
      <point x="181.0" y="0.0" type="line"/>
      <point x="286.0" y="163.0" type="line"/>
      <point x="290.0" y="163.0" type="line"/>
      <point x="391.0" y="0.0" type="line"/>
      <point x="555.0" y="0.0" type="line"/>
      <point x="370.0" y="254.0" type="line"/>
      <point x="545.0" y="505.0" type="line"/>
      <point x="387.0" y="505.0" type="line"/>
      <point x="289.0" y="349.0" type="line"/>
      <point x="285.0" y="349.0" type="line"/>
      <point x="191.0" y="505.0" type="line"/>
      <point x="30.0" y="505.0" type="line"/>
      <point x="205.0" y="256.0" type="line"/>
    </contour>
  </outline>
</glyph>
<glyph name="sterling" format="2">
  <advance width="580.0"/>
  <unicode hex="00A3"/>
  <outline>
    <contour>
      <point x="110.0" y="20.0" type="line"/>
      <point x="135.0" y="55.0"/>
      <point x="174.0" y="69.0"/>
      <point x="220.0" y="69.0" type="curve" smooth="yes"/>
      <point x="295.0" y="69.0"/>
      <point x="300.0" y="24.0"/>
      <point x="396.0" y="24.0" type="curve" smooth="yes"/>
      <point x="441.0" y="24.0"/>
      <point x="511.0" y="45.0"/>
      <point x="558.0" y="109.0" type="curve"/>
      <point x="466.0" y="207.0" type="line"/>
      <point x="446.0" y="179.0"/>
      <point x="419.0" y="157.0"/>
      <point x="380.0" y="157.0" type="curve" smooth="yes"/>
      <point x="335.0" y="157.0"/>
      <point x="272.0" y="179.0"/>
      <point x="220.0" y="160.0" type="curve" smooth="yes"/>
      <point x="195.0" y="151.0"/>
      <point x="163.0" y="153.0"/>
      <point x="121.0" y="130.0" type="curve"/>
      <point x="188.0" y="126.0" type="line"/>
      <point x="247.0" y="163.0"/>
      <point x="277.0" y="224.0"/>
      <point x="277.0" y="262.0" type="curve" smooth="yes"/>
      <point x="277.0" y="289.0"/>
      <point x="272.0" y="303.0"/>
      <point x="258.0" y="326.0" type="curve"/>
      <point x="250.0" y="342.0" type="line"/>
      <point x="213.0" y="395.0"/>
      <point x="200.0" y="417.0"/>
      <point x="200.0" y="454.0" type="curve" smooth="yes"/>
      <point x="200.0" y="506.0"/>
      <point x="239.0" y="543.0"/>
      <point x="291.0" y="543.0" type="curve" smooth="yes"/>
      <point x="347.0" y="543.0"/>
      <point x="387.0" y="492.0"/>
      <point x="387.0" y="440.0" type="curve"/>
      <point x="532.0" y="440.0" type="line"/>
      <point x="532.0" y="576.0"/>
      <point x="439.0" y="673.0"/>
      <point x="283.0" y="673.0" type="curve" smooth="yes"/>
      <point x="138.0" y="673.0"/>
      <point x="55.0" y="569.0"/>
      <point x="55.0" y="466.0" type="curve" smooth="yes"/>
      <point x="55.0" y="418.0"/>
      <point x="78.0" y="385.0"/>
      <point x="133.0" y="330.0" type="curve"/>
      <point x="126.0" y="321.0" type="line"/>
      <point x="137.0" y="305.0"/>
      <point x="149.0" y="289.0"/>
      <point x="149.0" y="257.0" type="curve" smooth="yes"/>
      <point x="149.0" y="234.0"/>
      <point x="113.0" y="191.0"/>
      <point x="66.0" y="139.0" type="curve" smooth="yes"/>
      <point x="26.0" y="95.0" type="line"/>
    </contour>
    <contour>
      <point x="35.0" y="293.0" type="line"/>
      <point x="391.0" y="293.0" type="line"/>
      <point x="391.0" y="378.0" type="line"/>
      <point x="35.0" y="378.0" type="line"/>
    </contour>
  </outline>
</glyph>
<glyph name="ordfeminine" format="2">
  <advance width="514.0"/>
  <unicode hex="00AA"/>
  <outline>
    <contour>
      <point x="241.0" y="311.0" type="curve" smooth="yes"/>
      <point x="294.0" y="311.0"/>
      <point x="329.0" y="332.0"/>
      <point x="350.0" y="365.0" type="curve"/>
      <point x="353.0" y="365.0" type="line"/>
      <point x="353.0" y="320.0" type="line"/>
      <point x="462.0" y="320.0" type="line"/>
      <point x="462.0" y="705.0" type="line"/>
      <point x="351.0" y="705.0" type="line"/>
      <point x="351.0" y="660.0" type="line"/>
      <point x="348.0" y="660.0" type="line"/>
      <point x="327.0" y="692.0"/>
      <point x="292.0" y="713.0"/>
      <point x="241.0" y="713.0" type="curve" smooth="yes"/>
      <point x="134.0" y="713.0"/>
      <point x="49.0" y="622.0"/>
      <point x="49.0" y="511.0" type="curve" smooth="yes"/>
      <point x="49.0" y="399.0"/>
      <point x="134.0" y="311.0"/>
    </contour>
    <contour>
      <point x="266.0" y="414.0" type="curve" smooth="yes"/>
      <point x="208.0" y="414.0"/>
      <point x="172.0" y="460.0"/>
      <point x="172.0" y="512.0" type="curve" smooth="yes"/>
      <point x="172.0" y="564.0"/>
      <point x="208.0" y="609.0"/>
      <point x="266.0" y="609.0" type="curve" smooth="yes"/>
      <point x="322.0" y="609.0"/>
      <point x="360.0" y="564.0"/>
      <point x="360.0" y="511.0" type="curve" smooth="yes"/>
      <point x="360.0" y="458.0"/>
      <point x="322.0" y="414.0"/>
    </contour>
    <contour>
      <point x="67.0" y="157.0" type="line"/>
      <point x="462.0" y="157.0" type="line"/>
      <point x="462.0" y="256.0" type="line"/>
      <point x="67.0" y="256.0" type="line"/>
    </contour>
  </outline>
</glyph>
<glyph name="degree" format="2">
  <advance width="423.0"/>
  <unicode hex="00B0"/>
  <outline>
    <contour>
      <point x="211.0" y="391.0" type="curve" smooth="yes"/>
      <point x="306.0" y="391.0"/>
      <point x="375.0" y="462.0"/>
      <point x="375.0" y="550.0" type="curve" smooth="yes"/>
      <point x="375.0" y="638.0"/>
      <point x="307.0" y="713.0"/>
      <point x="211.0" y="713.0" type="curve" smooth="yes"/>
      <point x="115.0" y="713.0"/>
      <point x="48.0" y="640.0"/>
      <point x="48.0" y="550.0" type="curve" smooth="yes"/>
      <point x="48.0" y="462.0"/>
      <point x="115.0" y="391.0"/>
    </contour>
    <contour>
      <point x="211.0" y="484.0" type="curve" smooth="yes"/>
      <point x="173.0" y="484.0"/>
      <point x="147.0" y="514.0"/>
      <point x="147.0" y="550.0" type="curve" smooth="yes"/>
      <point x="147.0" y="589.0"/>
      <point x="173.0" y="619.0"/>
      <point x="211.0" y="619.0" type="curve" smooth="yes"/>
      <point x="249.0" y="619.0"/>
      <point x="275.0" y="589.0"/>
      <point x="275.0" y="550.0" type="curve" smooth="yes"/>
      <point x="276.0" y="513.0"/>
      <point x="250.0" y="484.0"/>
    </contour>
  </outline>
</glyph>
<glyph name="plusminus" format="2">
  <advance width="596.0"/>
  <unicode hex="00B1"/>
  <outline>
    <contour>
      <point x="65.0" y="367.0" type="line"/>
      <point x="517.0" y="367.0" type="line"/>
      <point x="517.0" y="477.0" type="line"/>
      <point x="65.0" y="477.0" type="line"/>
    </contour>
    <contour>
      <point x="65.0" y="81.0" type="line"/>
      <point x="517.0" y="81.0" type="line"/>
      <point x="517.0" y="191.0" type="line"/>
      <point x="65.0" y="191.0" type="line"/>
    </contour>
    <contour>
      <point x="233.0" y="234.0" type="line"/>
      <point x="349.0" y="234.0" type="line"/>
      <point x="349.0" y="610.0" type="line"/>
      <point x="233.0" y="610.0" type="line"/>
    </contour>
  </outline>
</glyph>
<glyph name="Lslash" format="2">
  <advance width="536.0"/>
  <unicode hex="0141"/>
  <anchor x="293.0" y="0.0" name="bottom"/>
  <anchor x="318.0" y="370.0" name="center"/>
  <anchor x="481.0" y="0.0" name="ogonek"/>
  <anchor x="146.0" y="700.0" name="top"/>
  <anchor x="308.0" y="700.0" name="topright"/>
  <outline>
    <contour>
      <point x="10.0" y="191.0" type="line"/>
      <point x="142.0" y="283.0" type="line"/>
      <point x="152.0" y="281.0" type="line"/>
      <point x="323.0" y="393.0" type="line"/>
      <point x="323.0" y="536.0" type="line"/>
      <point x="158.0" y="417.0" type="line"/>
      <point x="142.0" y="419.0" type="line"/>
      <point x="10.0" y="327.0" type="line"/>
    </contour>
    <component base="L"/>
  </outline>
</glyph>
<glyph name="circumflexcomb" format="2">
  <unicode hex="0302"/>
  <anchor x="0.0" y="505.0" name="_top"/>
  <anchor x="0.0" y="700.0" name="top"/>
  <outline>
    <contour>
      <point x="-154.0" y="548.0" type="line"/>
      <point x="-43.0" y="548.0" type="line"/>
      <point x="0.0" y="656.0" type="line"/>
      <point x="3.0" y="656.0" type="line"/>
      <point x="45.0" y="548.0" type="line"/>
      <point x="154.0" y="548.0" type="line"/>
      <point x="56.0" y="707.0" type="line"/>
      <point x="-53.0" y="707.0" type="line"/>
    </contour>
  </outline>
</glyph>
<glyph name="tildecomb" format="2">
  <unicode hex="0303"/>
  <anchor x="0.0" y="505.0" name="_top"/>
  <anchor x="0.0" y="680.0" name="top"/>
  <outline>
    <contour>
      <point x="65.0" y="563.0" type="curve" smooth="yes"/>
      <point x="126.0" y="563.0"/>
      <point x="167.0" y="614.0"/>
      <point x="167.0" y="700.0" type="curve"/>
      <point x="93.0" y="700.0" type="line"/>
      <point x="93.0" y="671.0"/>
      <point x="84.0" y="655.0"/>
      <point x="69.0" y="655.0" type="curve" smooth="yes"/>
      <point x="33.0" y="655.0"/>
      <point x="19.0" y="717.0"/>
      <point x="-53.0" y="717.0" type="curve" smooth="yes"/>
      <point x="-122.0" y="717.0"/>
      <point x="-167.0" y="667.0"/>
      <point x="-167.0" y="582.0" type="curve"/>
      <point x="-94.0" y="582.0" type="line"/>
      <point x="-94.0" y="612.0"/>
      <point x="-80.0" y="627.0"/>
      <point x="-59.0" y="627.0" type="curve" smooth="yes"/>
      <point x="-18.0" y="627.0"/>
      <point x="-16.0" y="563.0"/>
    </contour>
  </outline>
</glyph>
<glyph name="ringcomb" format="2">
  <unicode hex="030A"/>
  <anchor x="0.0" y="505.0" name="_top"/>
  <anchor x="0.0" y="734.0" name="top"/>
  <outline>
    <contour>
      <point x="0.0" y="561.0" type="curve" smooth="yes"/>
      <point x="59.0" y="561.0"/>
      <point x="107.0" y="608.0"/>
      <point x="107.0" y="666.0" type="curve" smooth="yes"/>
      <point x="107.0" y="724.0"/>
      <point x="59.0" y="771.0"/>
      <point x="0.0" y="771.0" type="curve" smooth="yes"/>
      <point x="-58.0" y="771.0"/>
      <point x="-107.0" y="724.0"/>
      <point x="-107.0" y="666.0" type="curve" smooth="yes"/>
      <point x="-107.0" y="608.0"/>
      <point x="-58.0" y="561.0"/>
    </contour>
    <contour>
      <point x="0.0" y="628.0" type="curve" smooth="yes"/>
      <point x="-20.0" y="628.0"/>
      <point x="-38.0" y="646.0"/>
      <point x="-38.0" y="666.0" type="curve" smooth="yes"/>
      <point x="-38.0" y="686.0"/>
      <point x="-20.0" y="703.0"/>
      <point x="0.0" y="703.0" type="curve" smooth="yes"/>
      <point x="20.0" y="703.0"/>
      <point x="38.0" y="686.0"/>
      <point x="38.0" y="666.0" type="curve" smooth="yes"/>
      <point x="38.0" y="646.0"/>
      <point x="20.0" y="628.0"/>
    </contour>
  </outline>
</glyph>
<glyph name="ogonekcomb" format="2">
  <unicode hex="0328"/>
  <anchor x="0.0" y="0.0" name="_ogonek"/>
  <outline>
    <contour>
      <point x="65.0" y="-220.0" type="curve" smooth="yes"/>
      <point x="83.0" y="-220.0"/>
      <point x="103.0" y="-219.0"/>
      <point x="124.0" y="-214.0" type="curve"/>
      <point x="103.0" y="-125.0" type="line"/>
      <point x="96.0" y="-127.0"/>
      <point x="88.0" y="-128.0"/>
      <point x="76.0" y="-128.0" type="curve" smooth="yes"/>
      <point x="49.0" y="-128.0"/>
      <point x="28.0" y="-110.0"/>
      <point x="28.0" y="-85.0" type="curve" smooth="yes"/>
      <point x="28.0" y="-44.0"/>
      <point x="58.0" y="-16.0"/>
      <point x="96.0" y="0.0" type="curve"/>
      <point x="74.0" y="6.0" type="line"/>
      <point x="23.0" y="17.0" type="line"/>
      <point x="0.0" y="0.0" type="line" smooth="yes"/>
      <point x="-47.0" y="-34.0"/>
      <point x="-72.0" y="-72.0"/>
      <point x="-71.0" y="-116.0" type="curve" smooth="yes"/>
      <point x="-69.0" y="-190.0"/>
      <point x="-17.0" y="-220.0"/>
    </contour>
  </outline>
</glyph>
<glyph name="slashlongcomb" format="2">
  <unicode hex="0338"/>
  <anchor x="288.0" y="264.0" name="_center"/>
  <outline>
    <contour>
      <point x="9.0" y="-40.0" type="line"/>
      <point x="98.0" y="-40.0" type="line"/>
      <point x="561.0" y="560.0" type="line"/>
      <point x="472.0" y="560.0" type="line"/>
    </contour>
  </outline>
</glyph>
<glyph name="guarani" format="2">
  <advance width="731.0"/>
  <unicode hex="20B2"/>
  <anchor x="372.0" y="653.0" name="_TopCurrency"/>
  <anchor x="376.0" y="43.0" name="bottom"/>
  <anchor x="499.0" y="51.0" name="ogonek"/>
  <anchor x="376.0" y="666.0" name="top"/>
  <outline>
    <contour>
      <point x="374.0" y="27.0" type="curve" smooth="yes"/>
      <point x="568.0" y="27.0"/>
      <point x="689.0" y="153.0"/>
      <point x="689.0" y="325.0" type="curve" smooth="yes"/>
      <point x="689.0" y="345.0"/>
      <point x="687.0" y="373.0"/>
      <point x="684.0" y="391.0" type="curve"/>
      <point x="342.0" y="391.0" type="line"/>
      <point x="342.0" y="271.0" type="line"/>
      <point x="578.0" y="276.0" type="line"/>
      <point x="550.0" y="293.0" type="line"/>
      <point x="541.0" y="195.0"/>
      <point x="466.0" y="156.0"/>
      <point x="377.0" y="156.0" type="curve" smooth="yes"/>
      <point x="267.0" y="156.0"/>
      <point x="183.0" y="231.0"/>
      <point x="183.0" y="350.0" type="curve" smooth="yes"/>
      <point x="183.0" y="469.0"/>
      <point x="276.0" y="546.0"/>
      <point x="377.0" y="546.0" type="curve" smooth="yes"/>
      <point x="447.0" y="546.0"/>
      <point x="485.0" y="533.0"/>
      <point x="529.0" y="489.0" type="curve"/>
      <point x="624.0" y="574.0" type="line"/>
      <point x="554.0" y="646.0"/>
      <point x="477.0" y="673.0"/>
      <point x="374.0" y="673.0" type="curve" smooth="yes"/>
      <point x="181.0" y="673.0"/>
      <point x="42.0" y="528.0"/>
      <point x="42.0" y="350.0" type="curve" smooth="yes"/>
      <point x="42.0" y="172.0"/>
      <point x="181.0" y="27.0"/>
    </contour>
    <component base="verticalTopCurrencycomb" xOffset="372.0"/>
    <component base="verticalBottomCurrencycomb" xOffset="372.0"/>
  </outline>
</glyph>
<glyph name="rupeeIndian" format="2">
  <advance width="640.0"/>
  <unicode hex="20B9"/>
  <outline>
    <contour>
      <point x="341.0" y="20.0" type="line"/>
      <point x="506.0" y="20.0" type="line"/>
      <point x="279.0" y="278.0" type="line"/>
      <point x="276.0" y="233.0" type="line"/>
      <point x="423.0" y="248.0"/>
      <point x="509.0" y="329.0"/>
      <point x="509.0" y="450.0" type="curve" smooth="yes"/>
      <point x="509.0" y="577.0"/>
      <point x="413.0" y="670.0"/>
      <point x="268.0" y="670.0" type="curve" smooth="yes"/>
      <point x="30.0" y="670.0" type="line"/>
      <point x="30.0" y="535.0" type="line"/>
      <point x="247.0" y="535.0" type="line" smooth="yes"/>
      <point x="339.0" y="535.0"/>
      <point x="367.0" y="505.0"/>
      <point x="367.0" y="449.0" type="curve" smooth="yes"/>
      <point x="367.0" y="392.0"/>
      <point x="339.0" y="361.0"/>
      <point x="247.0" y="361.0" type="curve" smooth="yes"/>
      <point x="30.0" y="361.0" type="line"/>
      <point x="30.0" y="231.0" type="line"/>
      <point x="155.0" y="231.0" type="line"/>
    </contour>
    <contour>
      <point x="30.0" y="406.0" type="line"/>
      <point x="549.0" y="406.0" type="line"/>
      <point x="607.0" y="491.0" type="line"/>
      <point x="89.0" y="491.0" type="line"/>
    </contour>
    <contour>
      <point x="228.0" y="585.0" type="line"/>
      <point x="590.0" y="585.0" type="line"/>
      <point x="648.0" y="670.0" type="line"/>
      <point x="228.0" y="670.0" type="line"/>
    </contour>
  </outline>
</glyph>
<glyph name="ruble" format="2">
  <advance width="599.0"/>
  <unicode hex="20BD"/>
  <outline>
    <contour>
      <point x="80.0" y="30.0" type="line"/>
      <point x="220.0" y="30.0" type="line"/>
      <point x="220.0" y="244.0" type="line"/>
      <point x="326.0" y="244.0" type="line" smooth="yes"/>
      <point x="483.0" y="244.0"/>
      <point x="579.0" y="323.0"/>
      <point x="579.0" y="461.0" type="curve" smooth="yes"/>
      <point x="579.0" y="598.0"/>
      <point x="483.0" y="680.0"/>
      <point x="326.0" y="680.0" type="curve" smooth="yes"/>
      <point x="80.0" y="680.0" type="line"/>
    </contour>
    <contour>
      <point x="220.0" y="379.0" type="line"/>
      <point x="220.0" y="545.0" type="line"/>
      <point x="318.0" y="545.0" type="line" smooth="yes"/>
      <point x="394.0" y="545.0"/>
      <point x="437.0" y="516.0"/>
      <point x="437.0" y="460.0" type="curve" smooth="yes"/>
      <point x="437.0" y="403.0"/>
      <point x="394.0" y="379.0"/>
      <point x="318.0" y="379.0" type="curve" smooth="yes"/>
    </contour>
    <contour>
      <point x="20.0" y="244.0" type="line"/>
      <point x="183.0" y="244.0" type="line"/>
      <point x="183.0" y="329.0" type="line"/>
      <point x="20.0" y="329.0" type="line"/>
    </contour>
    <contour>
      <point x="20.0" y="103.0" type="line"/>
      <point x="468.0" y="103.0" type="line"/>
      <point x="467.0" y="188.0" type="line"/>
      <point x="20.0" y="188.0" type="line"/>
    </contour>
  </outline>
</glyph>
<glyph name="lari" format="2">
  <advance width="722.0"/>
  <unicode hex="20BE"/>
  <outline>
    <contour>
      <point x="564.0" y="395.0" type="curve"/>
      <point x="709.0" y="395.0" type="line"/>
      <point x="686.0" y="570.0"/>
      <point x="543.0" y="673.0"/>
      <point x="377.0" y="673.0" type="curve" smooth="yes"/>
      <point x="194.0" y="673.0"/>
      <point x="42.0" y="547.0"/>
      <point x="42.0" y="359.0" type="curve" smooth="yes"/>
      <point x="42.0" y="297.0"/>
      <point x="74.0" y="217.0"/>
      <point x="146.0" y="165.0" type="curve"/>
      <point x="146.0" y="163.0" type="line"/>
      <point x="20.0" y="163.0" type="line"/>
      <point x="20.0" y="30.0" type="line"/>
      <point x="671.0" y="30.0" type="line"/>
      <point x="671.0" y="163.0" type="line"/>
      <point x="399.0" y="163.0" type="line" smooth="yes"/>
      <point x="279.0" y="163.0"/>
      <point x="185.0" y="233.0"/>
      <point x="185.0" y="359.0" type="curve" smooth="yes"/>
      <point x="185.0" y="501.0"/>
      <point x="281.0" y="539.0"/>
      <point x="377.0" y="539.0" type="curve" smooth="yes"/>
      <point x="457.0" y="539.0"/>
      <point x="544.0" y="518.0"/>
    </contour>
    <contour>
      <point x="397.0" y="775.0" type="line"/>
      <point x="397.0" y="395.0" type="line"/>
      <point x="487.0" y="395.0" type="line"/>
      <point x="487.0" y="775.0" type="line"/>
    </contour>
    <contour>
      <point x="256.0" y="775.0" type="line"/>
      <point x="256.0" y="395.0" type="line"/>
      <point x="346.0" y="395.0" type="line"/>
      <point x="346.0" y="775.0" type="line"/>
    </contour>
  </outline>
</glyph>
<glyph name="literSign" format="2">
  <advance width="512.0"/>
  <unicode hex="2113"/>
  <outline>
    <contour>
      <point x="67.0" y="122.0"/>
      <point x="143.0" y="-11.0"/>
      <point x="299.0" y="-11.0" type="curve" smooth="yes"/>
      <point x="393.0" y="-11.0"/>
      <point x="468.0" y="66.0"/>
      <point x="502.0" y="168.0" type="curve"/>
      <point x="428.0" y="214.0" type="line"/>
      <point x="393.0" y="127.0"/>
      <point x="343.0" y="105.0"/>
      <point x="305.0" y="105.0" type="curve" smooth="yes"/>
      <point x="229.0" y="105.0"/>
      <point x="203.0" y="205.0"/>
      <point x="203.0" y="287.0" type="curve" smooth="yes"/>
      <point x="203.0" y="350.0"/>
      <point x="216.0" y="425.0"/>
      <point x="238.0" y="503.0" type="curve" smooth="yes"/>
      <point x="254.0" y="558.0"/>
      <point x="277.0" y="582.0"/>
      <point x="295.0" y="582.0" type="curve" smooth="yes"/>
      <point x="346.0" y="582.0"/>
      <point x="336.0" y="519.0"/>
      <point x="327.0" y="487.0" type="curve" smooth="yes"/>
      <point x="282.0" y="338.0"/>
      <point x="171.0" y="260.0"/>
      <point x="2.0" y="143.0" type="curve"/>
      <point x="58.0" y="67.0" type="line"/>
      <point x="225.0" y="182.0"/>
      <point x="372.0" y="268.0"/>
      <point x="431.0" y="463.0" type="curve" smooth="yes"/>
      <point x="466.0" y="582.0"/>
      <point x="434.0" y="714.0"/>
      <point x="294.0" y="714.0" type="curve" smooth="yes"/>
      <point x="220.0" y="714.0"/>
      <point x="141.0" y="661.0"/>
      <point x="106.0" y="539.0" type="curve" smooth="yes"/>
      <point x="83.0" y="458.0"/>
      <point x="67.0" y="370.0"/>
      <point x="67.0" y="290.0" type="curve" smooth="yes"/>
    </contour>
  </outline>
</glyph>
<glyph name="upArrow" format="2">
  <advance width="600.0"/>
  <unicode hex="2191"/>
  <outline>
    <contour>
      <point x="237.0" y="41.0" type="line"/>
      <point x="363.0" y="41.0" type="line"/>
      <point x="363.0" y="443.0" type="line"/>
      <point x="371.0" y="447.0" type="line"/>
      <point x="482.0" y="322.0" type="line"/>
      <point x="568.0" y="394.0" type="line"/>
      <point x="300.0" y="672.0" type="line"/>
      <point x="32.0" y="394.0" type="line"/>
      <point x="114.0" y="322.0" type="line"/>
      <point x="229.0" y="447.0" type="line"/>
      <point x="237.0" y="443.0" type="line"/>
    </contour>
  </outline>
</glyph>
<glyph name="upDownArrow" format="2">
  <advance width="600.0"/>
  <unicode hex="2195"/>
  <outline>
    <contour>
      <point x="300.0" y="-33.0" type="line"/>
      <point x="568.0" y="245.0" type="line"/>
      <point x="486.0" y="317.0" type="line"/>
      <point x="371.0" y="192.0" type="line"/>
      <point x="363.0" y="196.0" type="line"/>
      <point x="363.0" y="540.0" type="line"/>
      <point x="371.0" y="544.0" type="line"/>
      <point x="482.0" y="419.0" type="line"/>
      <point x="568.0" y="491.0" type="line"/>
      <point x="300.0" y="769.0" type="line"/>
      <point x="32.0" y="491.0" type="line"/>
      <point x="114.0" y="419.0" type="line"/>
      <point x="229.0" y="544.0" type="line"/>
      <point x="237.0" y="540.0" type="line"/>
      <point x="237.0" y="196.0" type="line"/>
      <point x="229.0" y="192.0" type="line"/>
      <point x="118.0" y="317.0" type="line"/>
      <point x="32.0" y="245.0" type="line"/>
    </contour>
  </outline>
</glyph>
<glyph name="emptyset" format="2">
  <advance width="641.0"/>
  <unicode hex="2205"/>
  <outline>
    <contour>
      <point x="321.0" y="-4.0" type="curve" smooth="yes"/>
      <point x="481.0" y="-4.0"/>
      <point x="611.0" y="126.0"/>
      <point x="611.0" y="287.0" type="curve" smooth="yes"/>
      <point x="611.0" y="446.0"/>
      <point x="481.0" y="576.0"/>
      <point x="321.0" y="576.0" type="curve" smooth="yes"/>
      <point x="160.0" y="576.0"/>
      <point x="30.0" y="446.0"/>
      <point x="30.0" y="287.0" type="curve" smooth="yes"/>
      <point x="30.0" y="126.0"/>
      <point x="160.0" y="-4.0"/>
    </contour>
    <contour>
      <point x="53.0" y="53.0" type="line"/>
      <point x="89.0" y="17.0" type="line"/>
      <point x="590.0" y="518.0" type="line"/>
      <point x="554.0" y="554.0" type="line"/>
    </contour>
    <contour>
      <point x="321.0" y="47.0" type="curve" smooth="yes"/>
      <point x="188.0" y="47.0"/>
      <point x="81.0" y="154.0"/>
      <point x="81.0" y="287.0" type="curve" smooth="yes"/>
      <point x="81.0" y="418.0"/>
      <point x="188.0" y="525.0"/>
      <point x="321.0" y="525.0" type="curve" smooth="yes"/>
      <point x="453.0" y="525.0"/>
      <point x="560.0" y="418.0"/>
      <point x="560.0" y="287.0" type="curve" smooth="yes"/>
      <point x="560.0" y="154.0"/>
      <point x="453.0" y="47.0"/>
    </contour>
  </outline>
</glyph>
<glyph name="radical" format="2">
  <advance width="660.0"/>
  <unicode hex="221A"/>
  <outline>
    <contour>
      <point x="181.0" y="-220.0" type="line"/>
      <point x="327.0" y="-220.0" type="line"/>
      <point x="499.0" y="590.0" type="line"/>
      <point x="628.0" y="590.0" type="line"/>
      <point x="628.0" y="700.0" type="line"/>
      <point x="405.0" y="700.0" type="line"/>
      <point x="264.0" y="-12.0" type="line" smooth="yes"/>
      <point x="257.0" y="-48.0"/>
      <point x="253.0" y="-78.0"/>
      <point x="253.0" y="-106.0" type="curve"/>
      <point x="249.0" y="-106.0" type="line"/>
      <point x="247.0" y="-77.0"/>
      <point x="240.0" y="-48.0"/>
      <point x="232.0" y="-11.0" type="curve" smooth="yes"/>
      <point x="191.0" y="176.0" type="line"/>
      <point x="65.0" y="176.0" type="line"/>
    </contour>
  </outline>
</glyph>
<glyph name="lessequal" format="2">
  <advance width="596.0"/>
  <unicode hex="2264"/>
  <outline>
    <contour>
      <point x="531.0" y="220.0" type="line"/>
      <point x="530.0" y="336.0" type="line"/>
      <point x="299.0" y="429.0" type="line"/>
      <point x="299.0" y="431.0" type="line"/>
      <point x="530.0" y="524.0" type="line"/>
      <point x="531.0" y="640.0" type="line"/>
      <point x="52.0" y="430.0" type="line"/>
    </contour>
    <contour>
      <point x="79.0" y="81.0" type="line"/>
      <point x="531.0" y="81.0" type="line"/>
      <point x="531.0" y="191.0" type="line"/>
      <point x="79.0" y="191.0" type="line"/>
    </contour>
  </outline>
</glyph>
<glyph name="whiteSmallSquare" format="2">
  <advance width="397.0"/>
  <unicode hex="25AB"/>
  <outline>
    <contour>
      <point x="90.0" y="255.0" type="line"/>
      <point x="307.0" y="255.0" type="line"/>
      <point x="307.0" y="471.0" type="line"/>
      <point x="90.0" y="471.0" type="line"/>
    </contour>
    <contour>
      <point x="146.0" y="311.0" type="line"/>
      <point x="146.0" y="415.0" type="line"/>
      <point x="251.0" y="415.0" type="line"/>
      <point x="251.0" y="311.0" type="line"/>
    </contour>
  </outline>
</glyph>
<glyph name="whiteCircle" format="2">
  <advance width="786.0"/>
  <unicode hex="25CB"/>
  <outline>
    <contour>
      <point x="394.0" y="-13.0" type="curve" smooth="yes"/>
      <point x="593.0" y="-13.0"/>
      <point x="756.0" y="149.0"/>
      <point x="756.0" y="350.0" type="curve" smooth="yes"/>
      <point x="756.0" y="549.0"/>
      <point x="593.0" y="713.0"/>
      <point x="394.0" y="713.0" type="curve" smooth="yes"/>
      <point x="194.0" y="713.0"/>
      <point x="30.0" y="549.0"/>
      <point x="30.0" y="350.0" type="curve" smooth="yes"/>
      <point x="30.0" y="149.0"/>
      <point x="194.0" y="-13.0"/>
    </contour>
    <contour>
      <point x="394.0" y="66.0" type="curve" smooth="yes"/>
      <point x="241.0" y="66.0"/>
      <point x="117.0" y="198.0"/>
      <point x="117.0" y="350.0" type="curve" smooth="yes"/>
      <point x="117.0" y="498.0"/>
      <point x="238.0" y="632.0"/>
      <point x="394.0" y="632.0" type="curve" smooth="yes"/>
      <point x="552.0" y="632.0"/>
      <point x="669.0" y="495.0"/>
      <point x="669.0" y="350.0" type="curve" smooth="yes"/>
      <point x="669.0" y="195.0"/>
      <point x="543.0" y="66.0"/>
    </contour>
  </outline>
</glyph>
<glyph name="ballotBoxWithCheck" format="2">
  <advance width="890.0"/>
  <unicode hex="2611"/>
  <outline>
    <contour>
      <point x="356.0" y="146.0" type="line"/>
      <point x="419.0" y="235.0" type="line"/>
      <point x="290.0" y="373.0" type="line"/>
      <point x="213.0" y="299.0" type="line"/>
    </contour>
    <contour>
      <point x="356.0" y="146.0" type="line"/>
      <point x="680.0" y="495.0" type="line"/>
      <point x="603.0" y="569.0" type="line"/>
      <point x="294.0" y="236.0" type="line"/>
    </contour>
    <component base="whiteSquare"/>
  </outline>
</glyph>
<glyph name="heartWhiteSuit" format="2">
  <advance width="832.0"/>
  <unicode hex="2661"/>
  <outline>
    <contour>
      <point x="416.0" y="-13.0" type="curve"/>
      <point x="618.0" y="102.0"/>
      <point x="827.0" y="294.0"/>
      <point x="827.0" y="508.0" type="curve" smooth="yes"/>
      <point x="827.0" y="622.0"/>
      <point x="736.0" y="713.0"/>
      <point x="622.0" y="713.0" type="curve" smooth="yes"/>
      <point x="503.0" y="713.0"/>
      <point x="427.0" y="620.0"/>
      <point x="420.0" y="531.0" type="curve"/>
      <point x="412.0" y="531.0" type="line"/>
      <point x="405.0" y="621.0"/>
      <point x="329.0" y="713.0"/>
      <point x="210.0" y="713.0" type="curve" smooth="yes"/>
      <point x="96.0" y="713.0"/>
      <point x="5.0" y="622.0"/>
      <point x="5.0" y="508.0" type="curve" smooth="yes"/>
      <point x="5.0" y="294.0"/>
      <point x="214.0" y="102.0"/>
    </contour>
    <contour>
      <point x="416.0" y="96.0" type="curve"/>
      <point x="256.0" y="194.0"/>
      <point x="109.0" y="342.0"/>
      <point x="109.0" y="493.0" type="curve" smooth="yes"/>
      <point x="109.0" y="562.0"/>
      <point x="158.0" y="622.0"/>
      <point x="226.0" y="622.0" type="curve" smooth="yes"/>
      <point x="298.0" y="622.0"/>
      <point x="341.0" y="586.0"/>
      <point x="382.0" y="452.0" type="curve"/>
      <point x="450.0" y="452.0" type="line"/>
      <point x="480.0" y="585.0"/>
      <point x="534.0" y="622.0"/>
      <point x="607.0" y="622.0" type="curve" smooth="yes"/>
      <point x="675.0" y="622.0"/>
      <point x="724.0" y="562.0"/>
      <point x="724.0" y="493.0" type="curve" smooth="yes"/>
      <point x="724.0" y="342.0"/>
      <point x="576.0" y="194.0"/>
    </contour>
  </outline>
</glyph>
<glyph name="ast" format="2">
  <advance width="140.0"/>
  <outline>
    <contour>
      <point x="69.0" y="535.0" type="line"/>
      <point x="102.0" y="545.0" type="line"/>
      <point x="115.0" y="697.0" type="line"/>
      <point x="23.0" y="697.0" type="line"/>
      <point x="36.0" y="545.0" type="line"/>
    </contour>
  </outline>
</glyph>
<glyph name="circumflexcomb.001" format="2">
  <anchor x="0.0" y="505.0" name="_top"/>
  <anchor x="0.0" y="700.0" name="top"/>
  <outline>
    <contour>
      <point x="-154.0" y="548.0" type="line"/>
      <point x="-43.0" y="548.0" type="line"/>
      <point x="0.0" y="656.0" type="line"/>
      <point x="3.0" y="656.0" type="line"/>
      <point x="45.0" y="548.0" type="line"/>
      <point x="154.0" y="548.0" type="line"/>
      <point x="56.0" y="707.0" type="line"/>
      <point x="-53.0" y="707.0" type="line"/>
    </contour>
  </outline>
</glyph>
<glyph name="commaaccentcomb.loclMAH" format="2">
  <anchor x="0.0" y="0.0" name="_bottom"/>
  <outline>
    <contour>
      <point x="1.0" y="-220.0" type="curve" smooth="yes"/>
      <point x="51.0" y="-220.0"/>
      <point x="107.0" y="-190.0"/>
      <point x="107.0" y="-119.0" type="curve" smooth="yes"/>
      <point x="107.0" y="-84.0"/>
      <point x="79.0" y="-30.0"/>
      <point x="0.0" y="-31.0" type="curve"/>
      <point x="-28.0" y="-96.0" type="line"/>
      <point x="-24.0" y="-99.0" type="line"/>
      <point x="-18.0" y="-97.0"/>
      <point x="-12.0" y="-96.0"/>
      <point x="-2.0" y="-96.0" type="curve" smooth="yes"/>
      <point x="10.0" y="-96.0"/>
      <point x="23.0" y="-104.0"/>
      <point x="23.0" y="-119.0" type="curve" smooth="yes"/>
      <point x="23.0" y="-140.0"/>
      <point x="6.0" y="-147.0"/>
      <point x="-8.0" y="-147.0" type="curve" smooth="yes"/>
      <point x="-23.0" y="-147.0"/>
      <point x="-36.0" y="-140.0"/>
      <point x="-47.0" y="-130.0" type="curve"/>
      <point x="-93.0" y="-188.0" type="line"/>
      <point x="-55.0" y="-216.0"/>
      <point x="-37.0" y="-220.0"/>
    </contour>
  </outline>
</glyph>
<glyph name="f_f_i.ss11" format="2">
  <advance width="961.0"/>
  <anchor x="837.0" y="0.0" name="bottom_1"/>
  <anchor x="816.0" y="0.0" name="ogonek_1"/>
  <anchor x="837.0" y="505.0" name="top_1"/>
  <anchor x="392.0" y="0.0" name="caret_1"/>
  <anchor x="720.0" y="0.0" name="caret_2"/>
  <outline>
    <contour>
      <point x="113.0" y="0.0" type="line"/>
      <point x="248.0" y="0.0" type="line"/>
      <point x="248.0" y="547.0" type="line" smooth="yes"/>
      <point x="248.0" y="598.0"/>
      <point x="286.0" y="630.0"/>
      <point x="347.0" y="630.0" type="curve" smooth="yes"/>
      <point x="405.0" y="630.0"/>
      <point x="441.0" y="601.0"/>
      <point x="441.0" y="554.0" type="curve" smooth="yes"/>
      <point x="441.0" y="0.0" type="line"/>
      <point x="576.0" y="0.0" type="line"/>
      <point x="576.0" y="547.0" type="line" smooth="yes"/>
      <point x="576.0" y="598.0"/>
      <point x="614.0" y="630.0"/>
      <point x="675.0" y="630.0" type="curve" smooth="yes"/>
      <point x="733.0" y="630.0"/>
      <point x="769.0" y="601.0"/>
      <point x="769.0" y="554.0" type="curve"/>
      <point x="904.0" y="554.0" type="line"/>
      <point x="904.0" y="668.0"/>
      <point x="811.0" y="753.0"/>
      <point x="675.0" y="753.0" type="curve" smooth="yes"/>
      <point x="614.0" y="753.0"/>
      <point x="547.0" y="725.0"/>
      <point x="513.0" y="675.0" type="curve"/>
      <point x="507.0" y="675.0" type="line"/>
      <point x="473.0" y="726.0"/>
      <point x="407.0" y="753.0"/>
      <point x="347.0" y="753.0" type="curve" smooth="yes"/>
      <point x="210.0" y="753.0"/>
      <point x="113.0" y="668.0"/>
      <point x="113.0" y="554.0" type="curve" smooth="yes"/>
    </contour>
    <contour>
      <point x="20.0" y="385.0" type="line"/>
      <point x="715.0" y="385.0" type="line"/>
      <point x="715.0" y="505.0" type="line"/>
      <point x="20.0" y="505.0" type="line"/>
    </contour>
    <component base="idotless" xOffset="699.0"/>
  </outline>
</glyph>
<glyph name="f_i.ss11" format="2">
  <advance width="650.0"/>
  <anchor x="513.0" y="0.0" name="bottom_1"/>
  <anchor x="492.0" y="0.0" name="ogonek_1"/>
  <anchor x="513.0" y="505.0" name="top_1"/>
  <anchor x="392.0" y="0.0" name="caret_1"/>
  <outline>
    <contour>
      <point x="113.0" y="0.0" type="line"/>
      <point x="248.0" y="0.0" type="line"/>
      <point x="248.0" y="547.0" type="line" smooth="yes"/>
      <point x="248.0" y="598.0"/>
      <point x="286.0" y="630.0"/>
      <point x="347.0" y="630.0" type="curve" smooth="yes"/>
      <point x="405.0" y="630.0"/>
      <point x="441.0" y="601.0"/>
      <point x="441.0" y="554.0" type="curve"/>
      <point x="576.0" y="554.0" type="line"/>
      <point x="576.0" y="668.0"/>
      <point x="483.0" y="753.0"/>
      <point x="347.0" y="753.0" type="curve" smooth="yes"/>
      <point x="210.0" y="753.0"/>
      <point x="113.0" y="668.0"/>
      <point x="113.0" y="554.0" type="curve" smooth="yes"/>
    </contour>
    <contour>
      <point x="20.0" y="385.0" type="line"/>
      <point x="387.0" y="385.0" type="line"/>
      <point x="387.0" y="505.0" type="line"/>
      <point x="20.0" y="505.0" type="line"/>
    </contour>
    <component base="idotless" xOffset="375.0"/>
  </outline>
</glyph>
<glyph name="hungarumlautcomb.case" format="2">
  <anchor x="0.0" y="700.0" name="_top"/>
  <outline>
    <contour>
      <point x="42.0" y="740.0" type="line"/>
      <point x="110.0" y="740.0" type="line"/>
      <point x="215.0" y="853.0" type="line"/>
      <point x="86.0" y="853.0" type="line"/>
    </contour>
    <contour>
      <point x="-110.0" y="740.0" type="line"/>
      <point x="-42.0" y="740.0" type="line"/>
      <point x="63.0" y="853.0" type="line"/>
      <point x="-66.0" y="853.0" type="line"/>
    </contour>
  </outline>
</glyph>
<glyph name="one.lf" format="2">
  <advance width="353.0"/>
  <outline>
    <contour>
      <point x="130.0" y="0.0" type="line"/>
      <point x="270.0" y="0.0" type="line"/>
      <point x="270.0" y="713.0" type="line"/>
      <point x="-19.0" y="594.0" type="line"/>
      <point x="35.0" y="463.0" type="line"/>
      <point x="126.0" y="502.0" type="line"/>
      <point x="130.0" y="497.0" type="line"/>
    </contour>
  </outline>
</glyph>
<glyph name="one.numr" format="2">
  <advance width="217.0"/>
  <outline>
    <contour>
      <point x="85.0" y="315.0" type="line"/>
      <point x="167.0" y="315.0" type="line"/>
      <point x="167.0" y="707.0" type="line"/>
      <point x="5.0" y="641.0" type="line"/>
      <point x="36.0" y="563.0" type="line"/>
      <point x="84.0" y="584.0" type="line"/>
      <point x="85.0" y="583.0" type="line"/>
    </contour>
  </outline>
</glyph>
<glyph name="pi.ss10" format="2">
  <advance width="609.0"/>
  <outline>
    <contour>
      <point x="113.0" y="0.0" type="line"/>
      <point x="248.0" y="0.0" type="line"/>
      <point x="248.0" y="385.0" type="line"/>
      <point x="362.0" y="385.0" type="line"/>
      <point x="362.0" y="0.0" type="line"/>
      <point x="497.0" y="0.0" type="line"/>
      <point x="497.0" y="385.0" type="line"/>
      <point x="589.0" y="385.0" type="line"/>
      <point x="589.0" y="505.0" type="line"/>
      <point x="20.0" y="505.0" type="line"/>
      <point x="20.0" y="385.0" type="line"/>
      <point x="113.0" y="385.0" type="line"/>
    </contour>
  </outline>
</glyph>
<glyph name="quotesingle.ss04" format="2">
  <advance width="187.0"/>
  <outline>
    <contour>
      <point x="20.0" y="700.0" type="line"/>
      <point x="58.0" y="377.0" type="line"/>
      <point x="128.0" y="377.0" type="line"/>
      <point x="167.0" y="700.0" type="line"/>
    </contour>
  </outline>
</glyph>
<glyph name="tittle" format="2">
  <advance width="276.0"/>
  <outline>
    <contour>
      <point x="138.0" y="563.0" type="curve" smooth="yes"/>
      <point x="185.0" y="563.0"/>
      <point x="219.0" y="598.0"/>
      <point x="219.0" y="643.0" type="curve" smooth="yes"/>
      <point x="219.0" y="686.0"/>
      <point x="185.0" y="722.0"/>
      <point x="138.0" y="722.0" type="curve" smooth="yes"/>
      <point x="92.0" y="722.0"/>
      <point x="57.0" y="686.0"/>
      <point x="57.0" y="643.0" type="curve" smooth="yes"/>
      <point x="57.0" y="599.0"/>
      <point x="92.0" y="563.0"/>
    </contour>
  </outline>
</glyph>
<glyph name="won.tf" format="2">
  <advance width="596.0"/>
  <outline>
    <contour>
      <point x="103.0" y="30.0" type="line"/>
      <point x="237.0" y="30.0" type="line"/>
      <point x="293.0" y="423.0" type="line" smooth="yes"/>
      <point x="302.0" y="485.0"/>
      <point x="302.0" y="516.0"/>
      <point x="303.0" y="547.0" type="curve"/>
      <point x="305.0" y="547.0" type="line"/>
      <point x="306.0" y="516.0"/>
      <point x="309.0" y="485.0"/>
      <point x="316.0" y="423.0" type="curve" smooth="yes"/>
      <point x="359.0" y="30.0" type="line"/>
      <point x="494.0" y="30.0" type="line"/>
      <point x="582.0" y="670.0" type="line"/>
      <point x="470.0" y="670.0" type="line"/>
      <point x="440.0" y="282.0" type="line" smooth="yes"/>
      <point x="435.0" y="216.0"/>
      <point x="436.0" y="174.0"/>
      <point x="434.0" y="142.0" type="curve"/>
      <point x="432.0" y="142.0" type="line"/>
      <point x="429.0" y="174.0"/>
      <point x="426.0" y="216.0"/>
      <point x="418.0" y="282.0" type="curve" smooth="yes"/>
      <point x="368.0" y="670.0" type="line"/>
      <point x="232.0" y="670.0" type="line"/>
      <point x="183.0" y="282.0" type="line" smooth="yes"/>
      <point x="175.0" y="216.0"/>
      <point x="171.0" y="174.0"/>
      <point x="168.0" y="142.0" type="curve"/>
      <point x="167.0" y="142.0" type="line"/>
      <point x="164.0" y="174.0"/>
      <point x="162.0" y="216.0"/>
      <point x="157.0" y="282.0" type="curve" smooth="yes"/>
      <point x="127.0" y="670.0" type="line"/>
      <point x="14.0" y="670.0" type="line"/>
    </contour>
    <contour>
      <point x="3.0" y="306.0" type="line"/>
      <point x="593.0" y="306.0" type="line"/>
      <point x="593.0" y="386.0" type="line"/>
      <point x="3.0" y="386.0" type="line"/>
    </contour>
  </outline>
</glyph>
<glyph name="zero.zero" format="2">
  <advance width="674.0"/>
  <outline>
    <contour>
      <point x="153.0" y="143.0" type="line"/>
      <point x="252.0" y="63.0" type="line"/>
      <point x="520.0" y="563.0" type="line"/>
      <point x="410.0" y="629.0" type="line"/>
    </contour>
    <component base="zero"/>
  </outline>
</glyph>
